<svg width="58" height="58" viewBox="0 0 58 58" fill="none" xmlns="http://www.w3.org/2000/svg">
<g filter="url(#filter0_f_2_1496)">
<path d="M58.0003 29C58.0003 45.0163 45.0166 58 29.0003 58C12.984 58 0.000305176 45.0163 0.000305176 29C0.000305176 12.9837 12.984 0 29.0003 0C45.0166 0 58.0003 12.9837 58.0003 29ZM2.90031 29C2.90031 43.4146 14.5857 55.1 29.0003 55.1C43.4149 55.1 55.1003 43.4146 55.1003 29C55.1003 14.5854 43.4149 2.9 29.0003 2.9C14.5857 2.9 2.90031 14.5854 2.90031 29Z" fill="url(#paint0_linear_2_1496)"/>
</g>
<defs>
<filter id="filter0_f_2_1496" x="-1.99969" y="-2" width="62" height="62" filterUnits="userSpaceOnUse" color-interpolation-filters="sRGB">
<feFlood flood-opacity="0" result="BackgroundImageFix"/>
<feBlend mode="normal" in="SourceGraphic" in2="BackgroundImageFix" result="shape"/>
<feGaussianBlur stdDeviation="1" result="effect1_foregroundBlur_2_1496"/>
</filter>
<linearGradient id="paint0_linear_2_1496" x1="4.79138" y1="10.2008" x2="29.0003" y2="58" gradientUnits="userSpaceOnUse">
<stop stop-color="white" stop-opacity="0"/>
<stop offset="1" stop-color="#BBBFC7"/>
</linearGradient>
</defs>
</svg>
