<svg width="390" height="92" viewBox="0 0 390 92" fill="none" xmlns="http://www.w3.org/2000/svg">
<g filter="url(#filter0_b_2_1485)">
<path d="M1 2.5166C1 2.5166 77.1385 18.2028 128.077 22.0226C154.424 23.9983 169.642 24.861 196.088 24.7581C222.534 24.6553 236.745 23.6782 263.076 21.4976C313.983 17.2818 390.997 0.999998 390.997 0.999998L391.339 88.9993L1.34221 90.5159L1 2.5166Z" fill="url(#paint0_linear_2_1485)" fill-opacity="0.26"/>
<path d="M1 2.5166L1.05045 2.27174L0.748804 2.2096L0.750002 2.51757L1.09221 90.5169L1.09318 90.7669L1.34318 90.7659L391.34 89.2493L391.59 89.2484L391.589 88.9984L391.247 0.999025L391.246 0.691871L390.945 0.755404L390.997 0.999998C390.945 0.755404 390.945 0.755464 390.944 0.755586L390.942 0.756139L390.931 0.758355L390.889 0.767188L390.723 0.802172C390.576 0.833085 390.357 0.879032 390.069 0.939149C389.492 1.05938 388.64 1.23629 387.538 1.46296C385.333 1.9163 382.127 2.56866 378.119 3.36469C370.105 4.95675 358.889 7.12341 346.082 9.42179C320.467 14.0189 288.496 19.1416 263.055 21.2485C236.728 23.4288 222.523 24.4053 196.087 24.5081C169.65 24.6109 154.439 23.7487 128.096 21.7733C102.639 19.8643 70.8794 14.9896 45.4792 10.5908C32.7801 8.39165 21.6726 6.31181 13.7399 4.78178C9.77357 4.01676 6.601 3.38921 4.4201 2.95294C3.32966 2.7348 2.48714 2.56448 1.91728 2.4487C1.63235 2.39082 1.41559 2.34656 1.27009 2.31679L1.10566 2.28309L1.06426 2.27459L1.05388 2.27245L1.0513 2.27192C1.05073 2.2718 1.05045 2.27174 1 2.5166Z" stroke="#7582F4" stroke-opacity="0.5" stroke-width="0.5"/>
</g>
<defs>
<filter id="filter0_b_2_1485" x="-49.5024" y="-49.6163" width="491.344" height="190.634" filterUnits="userSpaceOnUse" color-interpolation-filters="sRGB">
<feFlood flood-opacity="0" result="BackgroundImageFix"/>
<feGaussianBlur in="BackgroundImageFix" stdDeviation="25"/>
<feComposite in2="SourceAlpha" operator="in" result="effect1_backgroundBlur_2_1485"/>
<feBlend mode="normal" in="SourceGraphic" in2="effect1_backgroundBlur_2_1485" result="shape"/>
</filter>
<linearGradient id="paint0_linear_2_1485" x1="272.508" y1="1.46077" x2="272.85" y2="89.4601" gradientUnits="userSpaceOnUse">
<stop stop-color="#3A3A6A"/>
<stop offset="1" stop-color="#25244C"/>
</linearGradient>
</defs>
</svg>
